<?xml version="1.0" encoding="utf-8" standalone="no"?>
<!DOCTYPE svg PUBLIC "-//W3C//DTD SVG 1.1//EN"
  "http://www.w3.org/Graphics/SVG/1.1/DTD/svg11.dtd">
<svg xmlns:xlink="http://www.w3.org/1999/xlink" width="533.88pt" height="159.192pt" viewBox="0 0 533.88 159.192" xmlns="http://www.w3.org/2000/svg" version="1.1">
 <metadata>
  <rdf:RDF xmlns:dc="http://purl.org/dc/elements/1.1/" xmlns:cc="http://creativecommons.org/ns#" xmlns:rdf="http://www.w3.org/1999/02/22-rdf-syntax-ns#">
   <cc:Work>
    <dc:type rdf:resource="http://purl.org/dc/dcmitype/StillImage"/>
    <dc:date>2026-10-08T20:23:46.709522</dc:date>
    <dc:format>image/svg+xml</dc:format>
    <dc:creator>
     <cc:Agent>
      <dc:title>Matplotlib v3.11.2, https://matplotlib.org/</dc:title>
     </cc:Agent>
    </dc:creator>
   </cc:Work>
  </rdf:RDF>
 </metadata>
 <defs>
  <style type="text/css">*{stroke-linejoin: round; stroke-linecap: butt}</style>
 </defs>
 <g id="figure_1">
  <g id="patch_1">
   <path d="M 0 159.192 
L 533.88 159.192 
L 533.88 0 
L 0 0 
z
" style="fill: #f7f4ee"/>
  </g>
  <g id="axes_1">
   <g id="patch_2">
    <path d="M 21.3642 139.781664 
L 174.3678 139.781664 
Q 178.5528 139.781664 178.5528 136.593864 
L 178.5528 23.873256 
Q 178.5528 20.685456 174.3678 20.685456 
L 21.3642 20.685456 
Q 17.1792 20.685456 17.1792 23.873256 
L 17.1792 136.593864 
Q 17.1792 139.781664 21.3642 139.781664 
z
" clip-path="url(#pd3ac35e0fa)" style="fill: #ffffff; stroke: #ded7cc; stroke-linejoin: miter"/>
   </g>
   <g id="patch_3">
    <path d="M 188.7642 139.781664 
L 341.7678 139.781664 
Q 345.9528 139.781664 345.9528 136.593864 
L 345.9528 23.873256 
Q 345.9528 20.685456 341.7678 20.685456 
L 188.7642 20.685456 
Q 184.5792 20.685456 184.5792 23.873256 
L 184.5792 136.593864 
Q 184.5792 139.781664 188.7642 139.781664 
z
" clip-path="url(#pd3ac35e0fa)" style="fill: #ffffff; stroke: #ded7cc; stroke-linejoin: miter"/>
   </g>
   <g id="patch_4">
    <path d="M 356.1642 139.781664 
L 509.1678 139.781664 
Q 513.3528 139.781664 513.3528 136.593864 
L 513.3528 23.873256 
Q 513.3528 20.685456 509.1678 20.685456 
L 356.1642 20.685456 
Q 351.9792 20.685456 351.9792 23.873256 
L 351.9792 136.593864 
Q 351.9792 139.781664 356.1642 139.781664 
z
" clip-path="url(#pd3ac35e0fa)" style="fill: #ffffff; stroke: #ded7cc; stroke-linejoin: miter"/>
   </g>
   <g id="text_1">
    <!-- DAYS 01-14 -->
    <g style="fill: #c89836" transform="translate(32.58 45.16776) scale(0.11 -0.11)">
     <defs>
      <path id="Arial-BoldMT-27" d="M 463 4581 
L 2153 4581 
Q 2725 4581 3025 4494 
Q 3428 4375 3715 4072 
Q 4003 3769 4153 3330 
Q 4303 2891 4303 2247 
Q 4303 1681 4163 1272 
Q 3991 772 3672 463 
Q 3431 228 3022 97 
Q 2716 0 2203 0 
L 463 0 
L 463 4581 
z
M 1388 3806 
L 1388 772 
L 2078 772 
Q 2466 772 2638 816 
Q 2863 872 3011 1006 
Q 3159 1141 3253 1448 
Q 3347 1756 3347 2288 
Q 3347 2819 3253 3103 
Q 3159 3388 2990 3547 
Q 2822 3706 2563 3763 
Q 2369 3806 1803 3806 
L 1388 3806 
z
" transform="scale(0.015625)"/>
      <path id="Arial-BoldMT-24" d="M 4597 0 
L 3591 0 
L 3191 1041 
L 1359 1041 
L 981 0 
L 0 0 
L 1784 4581 
L 2763 4581 
L 4597 0 
z
M 2894 1813 
L 2263 3513 
L 1644 1813 
L 2894 1813 
z
" transform="scale(0.015625)"/>
      <path id="Arial-BoldMT-3c" d="M 1669 0 
L 1669 1928 
L -9 4581 
L 1075 4581 
L 2153 2769 
L 3209 4581 
L 4275 4581 
L 2591 1922 
L 2591 0 
L 1669 0 
z
" transform="scale(0.015625)"/>
      <path id="Arial-BoldMT-36" d="M 231 1491 
L 1131 1578 
Q 1213 1125 1461 912 
Q 1709 700 2131 700 
Q 2578 700 2804 889 
Q 3031 1078 3031 1331 
Q 3031 1494 2936 1608 
Q 2841 1722 2603 1806 
Q 2441 1863 1863 2006 
Q 1119 2191 819 2459 
Q 397 2838 397 3381 
Q 397 3731 595 4036 
Q 794 4341 1167 4500 
Q 1541 4659 2069 4659 
Q 2931 4659 3367 4281 
Q 3803 3903 3825 3272 
L 2900 3231 
Q 2841 3584 2645 3739 
Q 2450 3894 2059 3894 
Q 1656 3894 1428 3728 
Q 1281 3622 1281 3444 
Q 1281 3281 1419 3166 
Q 1594 3019 2269 2859 
Q 2944 2700 3267 2529 
Q 3591 2359 3773 2064 
Q 3956 1769 3956 1334 
Q 3956 941 3737 597 
Q 3519 253 3119 86 
Q 2719 -81 2122 -81 
Q 1253 -81 787 320 
Q 322 722 231 1491 
z
" transform="scale(0.015625)"/>
      <path id="Arial-BoldMT-3" transform="scale(0.015625)"/>
      <path id="Arial-BoldMT-13" d="M 1756 4600 
Q 2422 4600 2797 4125 
Q 3244 3563 3244 2259 
Q 3244 959 2794 391 
Q 2422 -78 1756 -78 
Q 1088 -78 678 436 
Q 269 950 269 2269 
Q 269 3563 719 4131 
Q 1091 4600 1756 4600 
z
M 1756 3872 
Q 1597 3872 1472 3770 
Q 1347 3669 1278 3406 
Q 1188 3066 1188 2259 
Q 1188 1453 1269 1151 
Q 1350 850 1473 750 
Q 1597 650 1756 650 
Q 1916 650 2041 751 
Q 2166 853 2234 1116 
Q 2325 1453 2325 2259 
Q 2325 3066 2244 3367 
Q 2163 3669 2039 3770 
Q 1916 3872 1756 3872 
z
" transform="scale(0.015625)"/>
      <path id="Arial-BoldMT-14" d="M 2519 0 
L 1641 0 
L 1641 3309 
Q 1159 2859 506 2644 
L 506 3441 
Q 850 3553 1253 3867 
Q 1656 4181 1806 4600 
L 2519 4600 
L 2519 0 
z
" transform="scale(0.015625)"/>
      <path id="Arial-BoldMT-10" d="M 359 1222 
L 359 2100 
L 2084 2100 
L 2084 1222 
L 359 1222 
z
" transform="scale(0.015625)"/>
      <path id="Arial-BoldMT-17" d="M 1994 0 
L 1994 922 
L 119 922 
L 119 1691 
L 2106 4600 
L 2844 4600 
L 2844 1694 
L 3413 1694 
L 3413 922 
L 2844 922 
L 2844 0 
L 1994 0 
z
M 1994 1694 
L 1994 3259 
L 941 1694 
L 1994 1694 
z
" transform="scale(0.015625)"/>
     </defs>
     <use xlink:href="#Arial-BoldMT-27"/>
     <use xlink:href="#Arial-BoldMT-24" transform="translate(72.21875 0)"/>
     <use xlink:href="#Arial-BoldMT-3c" transform="translate(135.265625 0)"/>
     <use xlink:href="#Arial-BoldMT-36" transform="translate(201.96875 0)"/>
     <use xlink:href="#Arial-BoldMT-3" transform="translate(268.671875 0)"/>
     <use xlink:href="#Arial-BoldMT-13" transform="translate(296.453125 0)"/>
     <use xlink:href="#Arial-BoldMT-14" transform="translate(352.0625 0)"/>
     <use xlink:href="#Arial-BoldMT-10" transform="translate(407.671875 0)"/>
     <use xlink:href="#Arial-BoldMT-14" transform="translate(440.96875 0)"/>
     <use xlink:href="#Arial-BoldMT-17" transform="translate(496.578125 0)"/>
    </g>
   </g>
   <g id="text_2">
    <!-- UNDERSTAND -->
    <g style="fill: #211c18" transform="translate(32.58 73.2204) scale(0.13 -0.13)">
     <defs>
      <path id="Arial-BoldMT-38" d="M 459 4581 
L 1384 4581 
L 1384 2100 
Q 1384 1509 1419 1334 
Q 1478 1053 1701 883 
Q 1925 713 2313 713 
Q 2706 713 2906 873 
Q 3106 1034 3147 1268 
Q 3188 1503 3188 2047 
L 3188 4581 
L 4113 4581 
L 4113 2175 
Q 4113 1350 4038 1009 
Q 3963 669 3761 434 
Q 3559 200 3221 61 
Q 2884 -78 2341 -78 
Q 1684 -78 1345 73 
Q 1006 225 809 467 
Q 613 709 550 975 
Q 459 1369 459 2138 
L 459 4581 
z
" transform="scale(0.015625)"/>
      <path id="Arial-BoldMT-31" d="M 475 0 
L 475 4581 
L 1375 4581 
L 3250 1522 
L 3250 4581 
L 4109 4581 
L 4109 0 
L 3181 0 
L 1334 2988 
L 1334 0 
L 475 0 
z
" transform="scale(0.015625)"/>
      <path id="Arial-BoldMT-28" d="M 466 0 
L 466 4581 
L 3863 4581 
L 3863 3806 
L 1391 3806 
L 1391 2791 
L 3691 2791 
L 3691 2019 
L 1391 2019 
L 1391 772 
L 3950 772 
L 3950 0 
L 466 0 
z
" transform="scale(0.015625)"/>
      <path id="Arial-BoldMT-35" d="M 469 0 
L 469 4581 
L 2416 4581 
Q 3150 4581 3483 4457 
Q 3816 4334 4016 4018 
Q 4216 3703 4216 3297 
Q 4216 2781 3912 2445 
Q 3609 2109 3006 2022 
Q 3306 1847 3501 1637 
Q 3697 1428 4028 894 
L 4588 0 
L 3481 0 
L 2813 997 
Q 2456 1531 2325 1670 
Q 2194 1809 2047 1861 
Q 1900 1913 1581 1913 
L 1394 1913 
L 1394 0 
L 469 0 
z
M 1394 2644 
L 2078 2644 
Q 2744 2644 2909 2700 
Q 3075 2756 3169 2893 
Q 3263 3031 3263 3238 
Q 3263 3469 3139 3611 
Q 3016 3753 2791 3791 
Q 2678 3806 2116 3806 
L 1394 3806 
L 1394 2644 
z
" transform="scale(0.015625)"/>
      <path id="Arial-BoldMT-37" d="M 1497 0 
L 1497 3806 
L 138 3806 
L 138 4581 
L 3778 4581 
L 3778 3806 
L 2422 3806 
L 2422 0 
L 1497 0 
z
" transform="scale(0.015625)"/>
     </defs>
     <use xlink:href="#Arial-BoldMT-38"/>
     <use xlink:href="#Arial-BoldMT-31" transform="translate(72.21875 0)"/>
     <use xlink:href="#Arial-BoldMT-27" transform="translate(144.4375 0)"/>
     <use xlink:href="#Arial-BoldMT-28" transform="translate(216.65625 0)"/>
     <use xlink:href="#Arial-BoldMT-35" transform="translate(283.359375 0)"/>
     <use xlink:href="#Arial-BoldMT-36" transform="translate(355.578125 0)"/>
     <use xlink:href="#Arial-BoldMT-37" transform="translate(422.28125 0)"/>
     <use xlink:href="#Arial-BoldMT-24" transform="translate(475.9375 0)"/>
     <use xlink:href="#Arial-BoldMT-31" transform="translate(548.15625 0)"/>
     <use xlink:href="#Arial-BoldMT-27" transform="translate(620.375 0)"/>
    </g>
   </g>
   <g id="text_3">
    <!-- Name one difficulty. -->
    <g style="fill: #211c18" transform="translate(32.58 107.5202) scale(0.11 -0.11)">
     <defs>
      <path id="ArialMT-31" d="M 488 0 
L 488 4581 
L 1109 4581 
L 3516 984 
L 3516 4581 
L 4097 4581 
L 4097 0 
L 3475 0 
L 1069 3600 
L 1069 0 
L 488 0 
z
" transform="scale(0.015625)"/>
      <path id="ArialMT-44" d="M 2588 409 
Q 2275 144 1986 34 
Q 1697 -75 1366 -75 
Q 819 -75 525 192 
Q 231 459 231 875 
Q 231 1119 342 1320 
Q 453 1522 633 1644 
Q 813 1766 1038 1828 
Q 1203 1872 1538 1913 
Q 2219 1994 2541 2106 
Q 2544 2222 2544 2253 
Q 2544 2597 2384 2738 
Q 2169 2928 1744 2928 
Q 1347 2928 1158 2789 
Q 969 2650 878 2297 
L 328 2372 
Q 403 2725 575 2942 
Q 747 3159 1072 3276 
Q 1397 3394 1825 3394 
Q 2250 3394 2515 3294 
Q 2781 3194 2906 3042 
Q 3031 2891 3081 2659 
Q 3109 2516 3109 2141 
L 3109 1391 
Q 3109 606 3145 398 
Q 3181 191 3288 0 
L 2700 0 
Q 2613 175 2588 409 
z
M 2541 1666 
Q 2234 1541 1622 1453 
Q 1275 1403 1131 1340 
Q 988 1278 909 1158 
Q 831 1038 831 891 
Q 831 666 1001 516 
Q 1172 366 1500 366 
Q 1825 366 2078 508 
Q 2331 650 2450 897 
Q 2541 1088 2541 1459 
L 2541 1666 
z
" transform="scale(0.015625)"/>
      <path id="ArialMT-50" d="M 422 0 
L 422 3319 
L 925 3319 
L 925 2853 
Q 1081 3097 1340 3245 
Q 1600 3394 1931 3394 
Q 2300 3394 2536 3241 
Q 2772 3088 2869 2813 
Q 3263 3394 3894 3394 
Q 4388 3394 4653 3120 
Q 4919 2847 4919 2278 
L 4919 0 
L 4359 0 
L 4359 2091 
Q 4359 2428 4304 2576 
Q 4250 2725 4106 2815 
Q 3963 2906 3769 2906 
Q 3419 2906 3187 2673 
Q 2956 2441 2956 1928 
L 2956 0 
L 2394 0 
L 2394 2156 
Q 2394 2531 2256 2718 
Q 2119 2906 1806 2906 
Q 1569 2906 1367 2781 
Q 1166 2656 1075 2415 
Q 984 2175 984 1722 
L 984 0 
L 422 0 
z
" transform="scale(0.015625)"/>
      <path id="ArialMT-48" d="M 2694 1069 
L 3275 997 
Q 3138 488 2766 206 
Q 2394 -75 1816 -75 
Q 1088 -75 661 373 
Q 234 822 234 1631 
Q 234 2469 665 2931 
Q 1097 3394 1784 3394 
Q 2450 3394 2872 2941 
Q 3294 2488 3294 1666 
Q 3294 1616 3291 1516 
L 816 1516 
Q 847 969 1125 678 
Q 1403 388 1819 388 
Q 2128 388 2347 550 
Q 2566 713 2694 1069 
z
M 847 1978 
L 2700 1978 
Q 2663 2397 2488 2606 
Q 2219 2931 1791 2931 
Q 1403 2931 1139 2672 
Q 875 2413 847 1978 
z
" transform="scale(0.015625)"/>
      <path id="ArialMT-3" transform="scale(0.015625)"/>
      <path id="ArialMT-52" d="M 213 1659 
Q 213 2581 725 3025 
Q 1153 3394 1769 3394 
Q 2453 3394 2887 2945 
Q 3322 2497 3322 1706 
Q 3322 1066 3130 698 
Q 2938 331 2570 128 
Q 2203 -75 1769 -75 
Q 1072 -75 642 372 
Q 213 819 213 1659 
z
M 791 1659 
Q 791 1022 1069 705 
Q 1347 388 1769 388 
Q 2188 388 2466 706 
Q 2744 1025 2744 1678 
Q 2744 2294 2464 2611 
Q 2184 2928 1769 2928 
Q 1347 2928 1069 2612 
Q 791 2297 791 1659 
z
" transform="scale(0.015625)"/>
      <path id="ArialMT-51" d="M 422 0 
L 422 3319 
L 928 3319 
L 928 2847 
Q 1294 3394 1984 3394 
Q 2284 3394 2536 3286 
Q 2788 3178 2913 3003 
Q 3038 2828 3088 2588 
Q 3119 2431 3119 2041 
L 3119 0 
L 2556 0 
L 2556 2019 
Q 2556 2363 2490 2533 
Q 2425 2703 2258 2804 
Q 2091 2906 1866 2906 
Q 1506 2906 1245 2678 
Q 984 2450 984 1813 
L 984 0 
L 422 0 
z
" transform="scale(0.015625)"/>
      <path id="ArialMT-47" d="M 2575 0 
L 2575 419 
Q 2259 -75 1647 -75 
Q 1250 -75 917 144 
Q 584 363 401 755 
Q 219 1147 219 1656 
Q 219 2153 384 2558 
Q 550 2963 881 3178 
Q 1213 3394 1622 3394 
Q 1922 3394 2156 3267 
Q 2391 3141 2538 2938 
L 2538 4581 
L 3097 4581 
L 3097 0 
L 2575 0 
z
M 797 1656 
Q 797 1019 1065 703 
Q 1334 388 1700 388 
Q 2069 388 2326 689 
Q 2584 991 2584 1609 
Q 2584 2291 2321 2609 
Q 2059 2928 1675 2928 
Q 1300 2928 1048 2622 
Q 797 2316 797 1656 
z
" transform="scale(0.015625)"/>
      <path id="ArialMT-4c" d="M 425 3934 
L 425 4581 
L 988 4581 
L 988 3934 
L 425 3934 
z
M 425 0 
L 425 3319 
L 988 3319 
L 988 0 
L 425 0 
z
" transform="scale(0.015625)"/>
      <path id="ArialMT-49" d="M 556 0 
L 556 2881 
L 59 2881 
L 59 3319 
L 556 3319 
L 556 3672 
Q 556 4006 616 4169 
Q 697 4388 901 4523 
Q 1106 4659 1475 4659 
Q 1713 4659 2000 4603 
L 1916 4113 
Q 1741 4144 1584 4144 
Q 1328 4144 1222 4034 
Q 1116 3925 1116 3625 
L 1116 3319 
L 1763 3319 
L 1763 2881 
L 1116 2881 
L 1116 0 
L 556 0 
z
" transform="scale(0.015625)"/>
      <path id="ArialMT-46" d="M 2588 1216 
L 3141 1144 
Q 3050 572 2676 248 
Q 2303 -75 1759 -75 
Q 1078 -75 664 370 
Q 250 816 250 1647 
Q 250 2184 428 2587 
Q 606 2991 970 3192 
Q 1334 3394 1763 3394 
Q 2303 3394 2647 3120 
Q 2991 2847 3088 2344 
L 2541 2259 
Q 2463 2594 2264 2762 
Q 2066 2931 1784 2931 
Q 1359 2931 1093 2626 
Q 828 2322 828 1663 
Q 828 994 1084 691 
Q 1341 388 1753 388 
Q 2084 388 2306 591 
Q 2528 794 2588 1216 
z
" transform="scale(0.015625)"/>
      <path id="ArialMT-58" d="M 2597 0 
L 2597 488 
Q 2209 -75 1544 -75 
Q 1250 -75 995 37 
Q 741 150 617 320 
Q 494 491 444 738 
Q 409 903 409 1263 
L 409 3319 
L 972 3319 
L 972 1478 
Q 972 1038 1006 884 
Q 1059 663 1231 536 
Q 1403 409 1656 409 
Q 1909 409 2131 539 
Q 2353 669 2445 892 
Q 2538 1116 2538 1541 
L 2538 3319 
L 3100 3319 
L 3100 0 
L 2597 0 
z
" transform="scale(0.015625)"/>
      <path id="ArialMT-4f" d="M 409 0 
L 409 4581 
L 972 4581 
L 972 0 
L 409 0 
z
" transform="scale(0.015625)"/>
      <path id="ArialMT-57" d="M 1650 503 
L 1731 6 
Q 1494 -44 1306 -44 
Q 1000 -44 831 53 
Q 663 150 594 308 
Q 525 466 525 972 
L 525 2881 
L 113 2881 
L 113 3319 
L 525 3319 
L 525 4141 
L 1084 4478 
L 1084 3319 
L 1650 3319 
L 1650 2881 
L 1084 2881 
L 1084 941 
Q 1084 700 1114 631 
Q 1144 563 1211 522 
Q 1278 481 1403 481 
Q 1497 481 1650 503 
z
" transform="scale(0.015625)"/>
      <path id="ArialMT-5c" d="M 397 -1278 
L 334 -750 
Q 519 -800 656 -800 
Q 844 -800 956 -737 
Q 1069 -675 1141 -563 
Q 1194 -478 1313 -144 
Q 1328 -97 1363 -6 
L 103 3319 
L 709 3319 
L 1400 1397 
Q 1534 1031 1641 628 
Q 1738 1016 1872 1384 
L 2581 3319 
L 3144 3319 
L 1881 -56 
Q 1678 -603 1566 -809 
Q 1416 -1088 1222 -1217 
Q 1028 -1347 759 -1347 
Q 597 -1347 397 -1278 
z
" transform="scale(0.015625)"/>
      <path id="ArialMT-11" d="M 581 0 
L 581 641 
L 1222 641 
L 1222 0 
L 581 0 
z
" transform="scale(0.015625)"/>
     </defs>
     <use xlink:href="#ArialMT-31"/>
     <use xlink:href="#ArialMT-44" transform="translate(72.21875 0)"/>
     <use xlink:href="#ArialMT-50" transform="translate(127.828125 0)"/>
     <use xlink:href="#ArialMT-48" transform="translate(211.125 0)"/>
     <use xlink:href="#ArialMT-3" transform="translate(266.734375 0)"/>
     <use xlink:href="#ArialMT-52" transform="translate(294.515625 0)"/>
     <use xlink:href="#ArialMT-51" transform="translate(350.125 0)"/>
     <use xlink:href="#ArialMT-48" transform="translate(405.734375 0)"/>
     <use xlink:href="#ArialMT-3" transform="translate(461.34375 0)"/>
     <use xlink:href="#ArialMT-47" transform="translate(489.125 0)"/>
     <use xlink:href="#ArialMT-4c" transform="translate(544.734375 0)"/>
     <use xlink:href="#ArialMT-49" transform="translate(566.953125 0)"/>
     <use xlink:href="#ArialMT-49" transform="translate(592.921875 0)"/>
     <use xlink:href="#ArialMT-4c" transform="translate(620.703125 0)"/>
     <use xlink:href="#ArialMT-46" transform="translate(642.921875 0)"/>
     <use xlink:href="#ArialMT-58" transform="translate(692.921875 0)"/>
     <use xlink:href="#ArialMT-4f" transform="translate(748.53125 0)"/>
     <use xlink:href="#ArialMT-57" transform="translate(770.75 0)"/>
     <use xlink:href="#ArialMT-5c" transform="translate(798.53125 0)"/>
     <use xlink:href="#ArialMT-11" transform="translate(841.109375 0)"/>
    </g>
    <!-- Identify the constraint. -->
    <g style="fill: #211c18" transform="translate(32.58 121.972739) scale(0.11 -0.11)">
     <defs>
      <path id="ArialMT-2c" d="M 597 0 
L 597 4581 
L 1203 4581 
L 1203 0 
L 597 0 
z
" transform="scale(0.015625)"/>
      <path id="ArialMT-4b" d="M 422 0 
L 422 4581 
L 984 4581 
L 984 2938 
Q 1378 3394 1978 3394 
Q 2347 3394 2619 3248 
Q 2891 3103 3008 2847 
Q 3125 2591 3125 2103 
L 3125 0 
L 2563 0 
L 2563 2103 
Q 2563 2525 2380 2717 
Q 2197 2909 1863 2909 
Q 1613 2909 1392 2779 
Q 1172 2650 1078 2428 
Q 984 2206 984 1816 
L 984 0 
L 422 0 
z
" transform="scale(0.015625)"/>
      <path id="ArialMT-56" d="M 197 991 
L 753 1078 
Q 800 744 1014 566 
Q 1228 388 1613 388 
Q 2000 388 2187 545 
Q 2375 703 2375 916 
Q 2375 1106 2209 1216 
Q 2094 1291 1634 1406 
Q 1016 1563 777 1677 
Q 538 1791 414 1992 
Q 291 2194 291 2438 
Q 291 2659 392 2848 
Q 494 3038 669 3163 
Q 800 3259 1026 3326 
Q 1253 3394 1513 3394 
Q 1903 3394 2198 3281 
Q 2494 3169 2634 2976 
Q 2775 2784 2828 2463 
L 2278 2388 
Q 2241 2644 2061 2787 
Q 1881 2931 1553 2931 
Q 1166 2931 1000 2803 
Q 834 2675 834 2503 
Q 834 2394 903 2306 
Q 972 2216 1119 2156 
Q 1203 2125 1616 2013 
Q 2213 1853 2448 1751 
Q 2684 1650 2818 1456 
Q 2953 1263 2953 975 
Q 2953 694 2789 445 
Q 2625 197 2315 61 
Q 2006 -75 1616 -75 
Q 969 -75 630 194 
Q 291 463 197 991 
z
" transform="scale(0.015625)"/>
      <path id="ArialMT-55" d="M 416 0 
L 416 3319 
L 922 3319 
L 922 2816 
Q 1116 3169 1280 3281 
Q 1444 3394 1641 3394 
Q 1925 3394 2219 3213 
L 2025 2691 
Q 1819 2813 1613 2813 
Q 1428 2813 1281 2702 
Q 1134 2591 1072 2394 
Q 978 2094 978 1738 
L 978 0 
L 416 0 
z
" transform="scale(0.015625)"/>
     </defs>
     <use xlink:href="#ArialMT-2c"/>
     <use xlink:href="#ArialMT-47" transform="translate(27.78125 0)"/>
     <use xlink:href="#ArialMT-48" transform="translate(83.390625 0)"/>
     <use xlink:href="#ArialMT-51" transform="translate(139 0)"/>
     <use xlink:href="#ArialMT-57" transform="translate(194.609375 0)"/>
     <use xlink:href="#ArialMT-4c" transform="translate(222.390625 0)"/>
     <use xlink:href="#ArialMT-49" transform="translate(244.609375 0)"/>
     <use xlink:href="#ArialMT-5c" transform="translate(272.390625 0)"/>
     <use xlink:href="#ArialMT-3" transform="translate(322.390625 0)"/>
     <use xlink:href="#ArialMT-57" transform="translate(350.171875 0)"/>
     <use xlink:href="#ArialMT-4b" transform="translate(377.953125 0)"/>
     <use xlink:href="#ArialMT-48" transform="translate(433.5625 0)"/>
     <use xlink:href="#ArialMT-3" transform="translate(489.171875 0)"/>
     <use xlink:href="#ArialMT-46" transform="translate(516.953125 0)"/>
     <use xlink:href="#ArialMT-52" transform="translate(566.953125 0)"/>
     <use xlink:href="#ArialMT-51" transform="translate(622.5625 0)"/>
     <use xlink:href="#ArialMT-56" transform="translate(678.171875 0)"/>
     <use xlink:href="#ArialMT-57" transform="translate(728.171875 0)"/>
     <use xlink:href="#ArialMT-55" transform="translate(755.953125 0)"/>
     <use xlink:href="#ArialMT-44" transform="translate(789.25 0)"/>
     <use xlink:href="#ArialMT-4c" transform="translate(844.859375 0)"/>
     <use xlink:href="#ArialMT-51" transform="translate(867.078125 0)"/>
     <use xlink:href="#ArialMT-57" transform="translate(922.6875 0)"/>
     <use xlink:href="#ArialMT-11" transform="translate(950.46875 0)"/>
    </g>
   </g>
   <g id="text_4">
    <!-- DAYS 15-45 -->
    <g style="fill: #b0472a" transform="translate(199.98 45.16776) scale(0.11 -0.11)">
     <defs>
      <path id="Arial-BoldMT-18" d="M 284 1178 
L 1159 1269 
Q 1197 972 1381 798 
Q 1566 625 1806 625 
Q 2081 625 2272 848 
Q 2463 1072 2463 1522 
Q 2463 1944 2273 2155 
Q 2084 2366 1781 2366 
Q 1403 2366 1103 2031 
L 391 2134 
L 841 4519 
L 3163 4519 
L 3163 3697 
L 1506 3697 
L 1369 2919 
Q 1663 3066 1969 3066 
Q 2553 3066 2959 2641 
Q 3366 2216 3366 1538 
Q 3366 972 3038 528 
Q 2591 -78 1797 -78 
Q 1163 -78 763 262 
Q 363 603 284 1178 
z
" transform="scale(0.015625)"/>
     </defs>
     <use xlink:href="#Arial-BoldMT-27"/>
     <use xlink:href="#Arial-BoldMT-24" transform="translate(72.21875 0)"/>
     <use xlink:href="#Arial-BoldMT-3c" transform="translate(135.265625 0)"/>
     <use xlink:href="#Arial-BoldMT-36" transform="translate(201.96875 0)"/>
     <use xlink:href="#Arial-BoldMT-3" transform="translate(268.671875 0)"/>
     <use xlink:href="#Arial-BoldMT-14" transform="translate(296.453125 0)"/>
     <use xlink:href="#Arial-BoldMT-18" transform="translate(352.0625 0)"/>
     <use xlink:href="#Arial-BoldMT-10" transform="translate(407.671875 0)"/>
     <use xlink:href="#Arial-BoldMT-17" transform="translate(440.96875 0)"/>
     <use xlink:href="#Arial-BoldMT-18" transform="translate(496.578125 0)"/>
    </g>
   </g>
   <g id="text_5">
    <!-- PRACTISE -->
    <g style="fill: #211c18" transform="translate(199.98 73.2204) scale(0.13 -0.13)">
     <defs>
      <path id="Arial-BoldMT-33" d="M 466 0 
L 466 4581 
L 1950 4581 
Q 2794 4581 3050 4513 
Q 3444 4409 3709 4064 
Q 3975 3719 3975 3172 
Q 3975 2750 3822 2462 
Q 3669 2175 3433 2011 
Q 3197 1847 2953 1794 
Q 2622 1728 1994 1728 
L 1391 1728 
L 1391 0 
L 466 0 
z
M 1391 3806 
L 1391 2506 
L 1897 2506 
Q 2444 2506 2628 2578 
Q 2813 2650 2917 2803 
Q 3022 2956 3022 3159 
Q 3022 3409 2875 3571 
Q 2728 3734 2503 3775 
Q 2338 3806 1838 3806 
L 1391 3806 
z
" transform="scale(0.015625)"/>
      <path id="Arial-BoldMT-26" d="M 3397 1684 
L 4294 1400 
Q 4088 650 3608 286 
Q 3128 -78 2391 -78 
Q 1478 -78 890 545 
Q 303 1169 303 2250 
Q 303 3394 893 4026 
Q 1484 4659 2447 4659 
Q 3288 4659 3813 4163 
Q 4125 3869 4281 3319 
L 3366 3100 
Q 3284 3456 3026 3662 
Q 2769 3869 2400 3869 
Q 1891 3869 1573 3503 
Q 1256 3138 1256 2319 
Q 1256 1450 1568 1081 
Q 1881 713 2381 713 
Q 2750 713 3015 947 
Q 3281 1181 3397 1684 
z
" transform="scale(0.015625)"/>
      <path id="Arial-BoldMT-2c" d="M 438 0 
L 438 4581 
L 1363 4581 
L 1363 0 
L 438 0 
z
" transform="scale(0.015625)"/>
     </defs>
     <use xlink:href="#Arial-BoldMT-33"/>
     <use xlink:href="#Arial-BoldMT-35" transform="translate(66.703125 0)"/>
     <use xlink:href="#Arial-BoldMT-24" transform="translate(138.921875 0)"/>
     <use xlink:href="#Arial-BoldMT-26" transform="translate(211.140625 0)"/>
     <use xlink:href="#Arial-BoldMT-37" transform="translate(283.359375 0)"/>
     <use xlink:href="#Arial-BoldMT-2c" transform="translate(344.4375 0)"/>
     <use xlink:href="#Arial-BoldMT-36" transform="translate(372.21875 0)"/>
     <use xlink:href="#Arial-BoldMT-28" transform="translate(438.921875 0)"/>
    </g>
   </g>
   <g id="text_6">
    <!-- Try one small action. -->
    <g style="fill: #211c18" transform="translate(199.98 107.453168) scale(0.11 -0.11)">
     <defs>
      <path id="ArialMT-37" d="M 1659 0 
L 1659 4041 
L 150 4041 
L 150 4581 
L 3781 4581 
L 3781 4041 
L 2266 4041 
L 2266 0 
L 1659 0 
z
" transform="scale(0.015625)"/>
     </defs>
     <use xlink:href="#ArialMT-37"/>
     <use xlink:href="#ArialMT-55" transform="translate(57.375 0)"/>
     <use xlink:href="#ArialMT-5c" transform="translate(90.671875 0)"/>
     <use xlink:href="#ArialMT-3" transform="translate(140.671875 0)"/>
     <use xlink:href="#ArialMT-52" transform="translate(168.453125 0)"/>
     <use xlink:href="#ArialMT-51" transform="translate(224.0625 0)"/>
     <use xlink:href="#ArialMT-48" transform="translate(279.671875 0)"/>
     <use xlink:href="#ArialMT-3" transform="translate(335.28125 0)"/>
     <use xlink:href="#ArialMT-56" transform="translate(363.0625 0)"/>
     <use xlink:href="#ArialMT-50" transform="translate(413.0625 0)"/>
     <use xlink:href="#ArialMT-44" transform="translate(496.359375 0)"/>
     <use xlink:href="#ArialMT-4f" transform="translate(551.96875 0)"/>
     <use xlink:href="#ArialMT-4f" transform="translate(574.1875 0)"/>
     <use xlink:href="#ArialMT-3" transform="translate(596.40625 0)"/>
     <use xlink:href="#ArialMT-44" transform="translate(624.1875 0)"/>
     <use xlink:href="#ArialMT-46" transform="translate(679.796875 0)"/>
     <use xlink:href="#ArialMT-57" transform="translate(729.796875 0)"/>
     <use xlink:href="#ArialMT-4c" transform="translate(757.578125 0)"/>
     <use xlink:href="#ArialMT-52" transform="translate(779.796875 0)"/>
     <use xlink:href="#ArialMT-51" transform="translate(835.40625 0)"/>
     <use xlink:href="#ArialMT-11" transform="translate(891.015625 0)"/>
    </g>
    <!-- Review the conditions. -->
    <g style="fill: #211c18" transform="translate(199.98 122.998832) scale(0.11 -0.11)">
     <defs>
      <path id="ArialMT-35" d="M 503 0 
L 503 4581 
L 2534 4581 
Q 3147 4581 3465 4457 
Q 3784 4334 3975 4021 
Q 4166 3709 4166 3331 
Q 4166 2844 3850 2509 
Q 3534 2175 2875 2084 
Q 3116 1969 3241 1856 
Q 3506 1613 3744 1247 
L 4541 0 
L 3778 0 
L 3172 953 
Q 2906 1366 2734 1584 
Q 2563 1803 2427 1890 
Q 2291 1978 2150 2013 
Q 2047 2034 1813 2034 
L 1109 2034 
L 1109 0 
L 503 0 
z
M 1109 2559 
L 2413 2559 
Q 2828 2559 3062 2645 
Q 3297 2731 3419 2920 
Q 3541 3109 3541 3331 
Q 3541 3656 3305 3865 
Q 3069 4075 2559 4075 
L 1109 4075 
L 1109 2559 
z
" transform="scale(0.015625)"/>
      <path id="ArialMT-59" d="M 1344 0 
L 81 3319 
L 675 3319 
L 1388 1331 
Q 1503 1009 1600 663 
Q 1675 925 1809 1294 
L 2547 3319 
L 3125 3319 
L 1869 0 
L 1344 0 
z
" transform="scale(0.015625)"/>
      <path id="ArialMT-5a" d="M 1034 0 
L 19 3319 
L 600 3319 
L 1128 1403 
L 1325 691 
Q 1338 744 1497 1375 
L 2025 3319 
L 2603 3319 
L 3100 1394 
L 3266 759 
L 3456 1400 
L 4025 3319 
L 4572 3319 
L 3534 0 
L 2950 0 
L 2422 1988 
L 2294 2553 
L 1622 0 
L 1034 0 
z
" transform="scale(0.015625)"/>
     </defs>
     <use xlink:href="#ArialMT-35"/>
     <use xlink:href="#ArialMT-48" transform="translate(72.21875 0)"/>
     <use xlink:href="#ArialMT-59" transform="translate(127.828125 0)"/>
     <use xlink:href="#ArialMT-4c" transform="translate(177.828125 0)"/>
     <use xlink:href="#ArialMT-48" transform="translate(200.046875 0)"/>
     <use xlink:href="#ArialMT-5a" transform="translate(255.65625 0)"/>
     <use xlink:href="#ArialMT-3" transform="translate(327.875 0)"/>
     <use xlink:href="#ArialMT-57" transform="translate(355.65625 0)"/>
     <use xlink:href="#ArialMT-4b" transform="translate(383.4375 0)"/>
     <use xlink:href="#ArialMT-48" transform="translate(439.046875 0)"/>
     <use xlink:href="#ArialMT-3" transform="translate(494.65625 0)"/>
     <use xlink:href="#ArialMT-46" transform="translate(522.4375 0)"/>
     <use xlink:href="#ArialMT-52" transform="translate(572.4375 0)"/>
     <use xlink:href="#ArialMT-51" transform="translate(628.046875 0)"/>
     <use xlink:href="#ArialMT-47" transform="translate(683.65625 0)"/>
     <use xlink:href="#ArialMT-4c" transform="translate(739.265625 0)"/>
     <use xlink:href="#ArialMT-57" transform="translate(761.484375 0)"/>
     <use xlink:href="#ArialMT-4c" transform="translate(789.265625 0)"/>
     <use xlink:href="#ArialMT-52" transform="translate(811.484375 0)"/>
     <use xlink:href="#ArialMT-51" transform="translate(867.09375 0)"/>
     <use xlink:href="#ArialMT-56" transform="translate(922.703125 0)"/>
     <use xlink:href="#ArialMT-11" transform="translate(972.703125 0)"/>
    </g>
   </g>
   <g id="text_7">
    <!-- DAYS 46-90 -->
    <g style="fill: #426b5c" transform="translate(367.38 45.16776) scale(0.11 -0.11)">
     <defs>
      <path id="Arial-BoldMT-19" d="M 3247 3459 
L 2397 3366 
Q 2366 3628 2234 3753 
Q 2103 3878 1894 3878 
Q 1616 3878 1423 3628 
Q 1231 3378 1181 2588 
Q 1509 2975 1997 2975 
Q 2547 2975 2939 2556 
Q 3331 2138 3331 1475 
Q 3331 772 2918 347 
Q 2506 -78 1859 -78 
Q 1166 -78 719 461 
Q 272 1000 272 2228 
Q 272 3488 737 4044 
Q 1203 4600 1947 4600 
Q 2469 4600 2811 4308 
Q 3153 4016 3247 3459 
z
M 1256 1544 
Q 1256 1116 1453 883 
Q 1650 650 1903 650 
Q 2147 650 2309 840 
Q 2472 1031 2472 1466 
Q 2472 1913 2297 2120 
Q 2122 2328 1859 2328 
Q 1606 2328 1431 2129 
Q 1256 1931 1256 1544 
z
" transform="scale(0.015625)"/>
      <path id="Arial-BoldMT-1c" d="M 291 1059 
L 1141 1153 
Q 1172 894 1303 769 
Q 1434 644 1650 644 
Q 1922 644 2112 894 
Q 2303 1144 2356 1931 
Q 2025 1547 1528 1547 
Q 988 1547 595 1964 
Q 203 2381 203 3050 
Q 203 3747 617 4173 
Q 1031 4600 1672 4600 
Q 2369 4600 2816 4061 
Q 3263 3522 3263 2288 
Q 3263 1031 2797 475 
Q 2331 -81 1584 -81 
Q 1047 -81 715 205 
Q 384 491 291 1059 
z
M 2278 2978 
Q 2278 3403 2083 3637 
Q 1888 3872 1631 3872 
Q 1388 3872 1227 3680 
Q 1066 3488 1066 3050 
Q 1066 2606 1241 2398 
Q 1416 2191 1678 2191 
Q 1931 2191 2104 2391 
Q 2278 2591 2278 2978 
z
" transform="scale(0.015625)"/>
     </defs>
     <use xlink:href="#Arial-BoldMT-27"/>
     <use xlink:href="#Arial-BoldMT-24" transform="translate(72.21875 0)"/>
     <use xlink:href="#Arial-BoldMT-3c" transform="translate(135.265625 0)"/>
     <use xlink:href="#Arial-BoldMT-36" transform="translate(201.96875 0)"/>
     <use xlink:href="#Arial-BoldMT-3" transform="translate(268.671875 0)"/>
     <use xlink:href="#Arial-BoldMT-17" transform="translate(296.453125 0)"/>
     <use xlink:href="#Arial-BoldMT-19" transform="translate(352.0625 0)"/>
     <use xlink:href="#Arial-BoldMT-10" transform="translate(407.671875 0)"/>
     <use xlink:href="#Arial-BoldMT-1c" transform="translate(440.96875 0)"/>
     <use xlink:href="#Arial-BoldMT-13" transform="translate(496.578125 0)"/>
    </g>
   </g>
   <g id="text_8">
    <!-- REVIEW -->
    <g style="fill: #211c18" transform="translate(367.38 73.2204) scale(0.13 -0.13)">
     <defs>
      <path id="Arial-BoldMT-39" d="M 1634 0 
L -3 4581 
L 1000 4581 
L 2159 1191 
L 3281 4581 
L 4263 4581 
L 2622 0 
L 1634 0 
z
" transform="scale(0.015625)"/>
      <path id="Arial-BoldMT-3a" d="M 1116 0 
L 22 4581 
L 969 4581 
L 1659 1434 
L 2497 4581 
L 3597 4581 
L 4400 1381 
L 5103 4581 
L 6034 4581 
L 4922 0 
L 3941 0 
L 3028 3425 
L 2119 0 
L 1116 0 
z
" transform="scale(0.015625)"/>
     </defs>
     <use xlink:href="#Arial-BoldMT-35"/>
     <use xlink:href="#Arial-BoldMT-28" transform="translate(72.21875 0)"/>
     <use xlink:href="#Arial-BoldMT-39" transform="translate(138.921875 0)"/>
     <use xlink:href="#Arial-BoldMT-2c" transform="translate(205.625 0)"/>
     <use xlink:href="#Arial-BoldMT-28" transform="translate(233.40625 0)"/>
     <use xlink:href="#Arial-BoldMT-3a" transform="translate(300.109375 0)"/>
    </g>
   </g>
   <g id="text_9">
    <!-- Examine the evidence. -->
    <g style="fill: #211c18" transform="translate(367.38 108.546293) scale(0.11 -0.11)">
     <defs>
      <path id="ArialMT-28" d="M 506 0 
L 506 4581 
L 3819 4581 
L 3819 4041 
L 1113 4041 
L 1113 2638 
L 3647 2638 
L 3647 2100 
L 1113 2100 
L 1113 541 
L 3925 541 
L 3925 0 
L 506 0 
z
" transform="scale(0.015625)"/>
      <path id="ArialMT-5b" d="M 47 0 
L 1259 1725 
L 138 3319 
L 841 3319 
L 1350 2541 
Q 1494 2319 1581 2169 
Q 1719 2375 1834 2534 
L 2394 3319 
L 3066 3319 
L 1919 1756 
L 3153 0 
L 2463 0 
L 1781 1031 
L 1600 1309 
L 728 0 
L 47 0 
z
" transform="scale(0.015625)"/>
     </defs>
     <use xlink:href="#ArialMT-28"/>
     <use xlink:href="#ArialMT-5b" transform="translate(66.703125 0)"/>
     <use xlink:href="#ArialMT-44" transform="translate(116.703125 0)"/>
     <use xlink:href="#ArialMT-50" transform="translate(172.3125 0)"/>
     <use xlink:href="#ArialMT-4c" transform="translate(255.609375 0)"/>
     <use xlink:href="#ArialMT-51" transform="translate(277.828125 0)"/>
     <use xlink:href="#ArialMT-48" transform="translate(333.4375 0)"/>
     <use xlink:href="#ArialMT-3" transform="translate(389.046875 0)"/>
     <use xlink:href="#ArialMT-57" transform="translate(416.828125 0)"/>
     <use xlink:href="#ArialMT-4b" transform="translate(444.609375 0)"/>
     <use xlink:href="#ArialMT-48" transform="translate(500.21875 0)"/>
     <use xlink:href="#ArialMT-3" transform="translate(555.828125 0)"/>
     <use xlink:href="#ArialMT-48" transform="translate(583.609375 0)"/>
     <use xlink:href="#ArialMT-59" transform="translate(639.21875 0)"/>
     <use xlink:href="#ArialMT-4c" transform="translate(689.21875 0)"/>
     <use xlink:href="#ArialMT-47" transform="translate(711.4375 0)"/>
     <use xlink:href="#ArialMT-48" transform="translate(767.046875 0)"/>
     <use xlink:href="#ArialMT-51" transform="translate(822.65625 0)"/>
     <use xlink:href="#ArialMT-46" transform="translate(878.265625 0)"/>
     <use xlink:href="#ArialMT-48" transform="translate(928.265625 0)"/>
     <use xlink:href="#ArialMT-11" transform="translate(983.875 0)"/>
    </g>
    <!-- Keep, adapt or stop. -->
    <g style="fill: #211c18" transform="translate(367.38 121.97016) scale(0.11 -0.11)">
     <defs>
      <path id="ArialMT-2e" d="M 469 0 
L 469 4581 
L 1075 4581 
L 1075 2309 
L 3350 4581 
L 4172 4581 
L 2250 2725 
L 4256 0 
L 3456 0 
L 1825 2319 
L 1075 1588 
L 1075 0 
L 469 0 
z
" transform="scale(0.015625)"/>
      <path id="ArialMT-53" d="M 422 -1272 
L 422 3319 
L 934 3319 
L 934 2888 
Q 1116 3141 1344 3267 
Q 1572 3394 1897 3394 
Q 2322 3394 2647 3175 
Q 2972 2956 3137 2557 
Q 3303 2159 3303 1684 
Q 3303 1175 3120 767 
Q 2938 359 2589 142 
Q 2241 -75 1856 -75 
Q 1575 -75 1351 44 
Q 1128 163 984 344 
L 984 -1272 
L 422 -1272 
z
M 931 1641 
Q 931 1000 1190 694 
Q 1450 388 1819 388 
Q 2194 388 2461 705 
Q 2728 1022 2728 1688 
Q 2728 2322 2467 2637 
Q 2206 2953 1844 2953 
Q 1484 2953 1207 2617 
Q 931 2281 931 1641 
z
" transform="scale(0.015625)"/>
      <path id="ArialMT-f" d="M 569 0 
L 569 641 
L 1209 641 
L 1209 0 
Q 1209 -353 1084 -570 
Q 959 -788 688 -906 
L 531 -666 
Q 709 -588 793 -436 
Q 878 -284 888 0 
L 569 0 
z
" transform="scale(0.015625)"/>
     </defs>
     <use xlink:href="#ArialMT-2e"/>
     <use xlink:href="#ArialMT-48" transform="translate(66.703125 0)"/>
     <use xlink:href="#ArialMT-48" transform="translate(122.3125 0)"/>
     <use xlink:href="#ArialMT-53" transform="translate(177.921875 0)"/>
     <use xlink:href="#ArialMT-f" transform="translate(233.53125 0)"/>
     <use xlink:href="#ArialMT-3" transform="translate(261.3125 0)"/>
     <use xlink:href="#ArialMT-44" transform="translate(289.09375 0)"/>
     <use xlink:href="#ArialMT-47" transform="translate(344.703125 0)"/>
     <use xlink:href="#ArialMT-44" transform="translate(400.3125 0)"/>
     <use xlink:href="#ArialMT-53" transform="translate(455.921875 0)"/>
     <use xlink:href="#ArialMT-57" transform="translate(511.53125 0)"/>
     <use xlink:href="#ArialMT-3" transform="translate(539.3125 0)"/>
     <use xlink:href="#ArialMT-52" transform="translate(567.09375 0)"/>
     <use xlink:href="#ArialMT-55" transform="translate(622.703125 0)"/>
     <use xlink:href="#ArialMT-3" transform="translate(656 0)"/>
     <use xlink:href="#ArialMT-56" transform="translate(683.78125 0)"/>
     <use xlink:href="#ArialMT-57" transform="translate(733.78125 0)"/>
     <use xlink:href="#ArialMT-52" transform="translate(761.5625 0)"/>
     <use xlink:href="#ArialMT-53" transform="translate(817.171875 0)"/>
     <use xlink:href="#ArialMT-11" transform="translate(872.78125 0)"/>
    </g>
   </g>
  </g>
 </g>
 <defs>
  <clipPath id="pd3ac35e0fa">
   <rect x="15.84" y="15.84" width="502.2" height="127.512"/>
  </clipPath>
 </defs>
</svg>
